<mxfile host="app.diagrams.net" agent="Mozilla/5.0 (Windows NT 10.0; Win64; x64) AppleWebKit/537.36 (KHTML, like Gecko) Chrome/127.0.0.0 Safari/537.36" version="24.7.10">
  <diagram name="第 1 页" id="ffTpApcm0pgPxWFKq06H">
    <mxGraphModel dx="863" dy="381" grid="1" gridSize="10" guides="1" tooltips="1" connect="1" arrows="1" fold="1" page="1" pageScale="1" pageWidth="827" pageHeight="1169" math="0" shadow="0">
      <root>
        <mxCell id="0" />
        <mxCell id="1" parent="0" />
        <mxCell id="lSYbg_Df87yItmygA94X-1" value="" style="ellipse;whiteSpace=wrap;html=1;aspect=fixed;" vertex="1" parent="1">
          <mxGeometry x="48" y="358.66999999999996" width="20" height="20" as="geometry" />
        </mxCell>
        <mxCell id="lSYbg_Df87yItmygA94X-2" value="" style="endArrow=classic;html=1;rounded=0;exitX=1;exitY=0.5;exitDx=0;exitDy=0;" edge="1" parent="1" source="lSYbg_Df87yItmygA94X-1">
          <mxGeometry width="50" height="50" relative="1" as="geometry">
            <mxPoint x="298" y="353.66999999999996" as="sourcePoint" />
            <mxPoint x="198" y="368.66999999999996" as="targetPoint" />
          </mxGeometry>
        </mxCell>
        <mxCell id="lSYbg_Df87yItmygA94X-3" value="ProcessCreate" style="edgeLabel;html=1;align=center;verticalAlign=middle;resizable=0;points=[];" vertex="1" connectable="0" parent="lSYbg_Df87yItmygA94X-2">
          <mxGeometry x="-0.16" y="3" relative="1" as="geometry">
            <mxPoint x="9" y="-7" as="offset" />
          </mxGeometry>
        </mxCell>
        <mxCell id="lSYbg_Df87yItmygA94X-4" value="" style="endArrow=classic;html=1;rounded=0;entryX=0;entryY=0.5;entryDx=0;entryDy=0;" edge="1" parent="1" target="lSYbg_Df87yItmygA94X-7">
          <mxGeometry width="50" height="50" relative="1" as="geometry">
            <mxPoint x="1160" y="299" as="sourcePoint" />
            <mxPoint x="1208" y="449" as="targetPoint" />
            <Array as="points">
              <mxPoint x="1160" y="359" />
            </Array>
          </mxGeometry>
        </mxCell>
        <mxCell id="lSYbg_Df87yItmygA94X-5" value="ProcessCreate" style="edgeLabel;html=1;align=center;verticalAlign=middle;resizable=0;points=[];" vertex="1" connectable="0" parent="lSYbg_Df87yItmygA94X-4">
          <mxGeometry x="-0.16" y="3" relative="1" as="geometry">
            <mxPoint x="39" y="-6" as="offset" />
          </mxGeometry>
        </mxCell>
        <mxCell id="lSYbg_Df87yItmygA94X-6" value="explorer.exe" style="text;strokeColor=none;align=center;fillColor=none;html=1;verticalAlign=middle;whiteSpace=wrap;rounded=0;" vertex="1" parent="1">
          <mxGeometry x="28" y="373.66999999999996" width="60" height="30" as="geometry" />
        </mxCell>
        <mxCell id="lSYbg_Df87yItmygA94X-7" value="" style="ellipse;whiteSpace=wrap;html=1;aspect=fixed;fillColor=#f8cecc;strokeColor=#b85450;" vertex="1" parent="1">
          <mxGeometry x="1260" y="349" width="20" height="20" as="geometry" />
        </mxCell>
        <mxCell id="lSYbg_Df87yItmygA94X-8" value="window.exe" style="text;strokeColor=none;align=center;fillColor=none;html=1;verticalAlign=middle;whiteSpace=wrap;rounded=0;" vertex="1" parent="1">
          <mxGeometry x="1240" y="364" width="60" height="30" as="geometry" />
        </mxCell>
        <mxCell id="lSYbg_Df87yItmygA94X-9" value="" style="endArrow=classic;html=1;rounded=0;exitX=0.5;exitY=0;exitDx=0;exitDy=0;entryX=0.5;entryY=1;entryDx=0;entryDy=0;" edge="1" parent="1" source="lSYbg_Df87yItmygA94X-1" target="lSYbg_Df87yItmygA94X-11">
          <mxGeometry width="50" height="50" relative="1" as="geometry">
            <mxPoint x="57" y="274.17" as="sourcePoint" />
            <mxPoint x="57" y="190" as="targetPoint" />
          </mxGeometry>
        </mxCell>
        <mxCell id="lSYbg_Df87yItmygA94X-10" value="ProcessCreate" style="edgeLabel;html=1;align=center;verticalAlign=middle;resizable=0;points=[];" vertex="1" connectable="0" parent="lSYbg_Df87yItmygA94X-9">
          <mxGeometry x="-0.16" y="3" relative="1" as="geometry">
            <mxPoint x="3" y="-7" as="offset" />
          </mxGeometry>
        </mxCell>
        <mxCell id="lSYbg_Df87yItmygA94X-11" value="" style="ellipse;whiteSpace=wrap;html=1;aspect=fixed;" vertex="1" parent="1">
          <mxGeometry x="47" y="168" width="20" height="20" as="geometry" />
        </mxCell>
        <mxCell id="lSYbg_Df87yItmygA94X-12" value="CMClient.exe" style="text;strokeColor=none;align=center;fillColor=none;html=1;verticalAlign=middle;whiteSpace=wrap;rounded=0;" vertex="1" parent="1">
          <mxGeometry x="30" y="145" width="60" height="30" as="geometry" />
        </mxCell>
        <mxCell id="lSYbg_Df87yItmygA94X-13" value="" style="endArrow=classic;html=1;rounded=0;exitX=1;exitY=0.5;exitDx=0;exitDy=0;edgeStyle=elbowEdgeStyle;dashed=1;entryX=0;entryY=0.5;entryDx=0;entryDy=0;" edge="1" parent="1" target="lSYbg_Df87yItmygA94X-15">
          <mxGeometry width="50" height="50" relative="1" as="geometry">
            <mxPoint x="67" y="179.57999999999998" as="sourcePoint" />
            <mxPoint x="117" y="120" as="targetPoint" />
            <Array as="points">
              <mxPoint x="87" y="180" />
            </Array>
          </mxGeometry>
        </mxCell>
        <mxCell id="lSYbg_Df87yItmygA94X-14" value="FileCreate" style="edgeLabel;html=1;align=center;verticalAlign=middle;resizable=0;points=[];" vertex="1" connectable="0" parent="lSYbg_Df87yItmygA94X-13">
          <mxGeometry x="-0.16" y="3" relative="1" as="geometry">
            <mxPoint x="6" y="-7" as="offset" />
          </mxGeometry>
        </mxCell>
        <mxCell id="lSYbg_Df87yItmygA94X-15" value="" style="shape=document;whiteSpace=wrap;html=1;boundedLbl=1;" vertex="1" parent="1">
          <mxGeometry x="200" y="171" width="30" height="20" as="geometry" />
        </mxCell>
        <mxCell id="lSYbg_Df87yItmygA94X-16" value=".zip" style="text;strokeColor=none;align=center;fillColor=none;html=1;verticalAlign=middle;whiteSpace=wrap;rounded=0;" vertex="1" parent="1">
          <mxGeometry x="212" y="160" width="60" height="30" as="geometry" />
        </mxCell>
        <mxCell id="lSYbg_Df87yItmygA94X-17" value="" style="ellipse;whiteSpace=wrap;html=1;aspect=fixed;fillColor=#f8cecc;strokeColor=#b85450;" vertex="1" parent="1">
          <mxGeometry x="202" y="123" width="24" height="24" as="geometry" />
        </mxCell>
        <mxCell id="lSYbg_Df87yItmygA94X-18" value="winrar.exe" style="text;strokeColor=none;align=center;fillColor=none;html=1;verticalAlign=middle;whiteSpace=wrap;rounded=0;" vertex="1" parent="1">
          <mxGeometry x="178" y="98" width="60" height="30" as="geometry" />
        </mxCell>
        <mxCell id="lSYbg_Df87yItmygA94X-19" value="" style="endArrow=classic;html=1;rounded=0;entryX=0.339;entryY=-0.066;entryDx=0;entryDy=0;entryPerimeter=0;" edge="1" parent="1">
          <mxGeometry width="50" height="50" relative="1" as="geometry">
            <mxPoint x="1160" y="359" as="sourcePoint" />
            <mxPoint x="1260.3400000000001" y="465.69000000000005" as="targetPoint" />
            <Array as="points">
              <mxPoint x="1160" y="466" />
            </Array>
          </mxGeometry>
        </mxCell>
        <mxCell id="lSYbg_Df87yItmygA94X-20" value="ProcessCreate" style="edgeLabel;html=1;align=center;verticalAlign=middle;resizable=0;points=[];" vertex="1" connectable="0" parent="lSYbg_Df87yItmygA94X-19">
          <mxGeometry x="-0.16" y="3" relative="1" as="geometry">
            <mxPoint x="38" y="-5" as="offset" />
          </mxGeometry>
        </mxCell>
        <mxCell id="lSYbg_Df87yItmygA94X-21" value="" style="endArrow=classic;html=1;rounded=0;exitX=1;exitY=0.5;exitDx=0;exitDy=0;" edge="1" parent="1">
          <mxGeometry width="50" height="50" relative="1" as="geometry">
            <mxPoint x="1070" y="294" as="sourcePoint" />
            <mxPoint x="1260" y="159" as="targetPoint" />
            <Array as="points">
              <mxPoint x="1160" y="294" />
              <mxPoint x="1160" y="159" />
            </Array>
          </mxGeometry>
        </mxCell>
        <mxCell id="lSYbg_Df87yItmygA94X-22" value="NetWorkConnect" style="edgeLabel;html=1;align=center;verticalAlign=middle;resizable=0;points=[];" vertex="1" connectable="0" parent="lSYbg_Df87yItmygA94X-21">
          <mxGeometry x="0.0831" y="3" relative="1" as="geometry">
            <mxPoint x="48" y="-59" as="offset" />
          </mxGeometry>
        </mxCell>
        <mxCell id="lSYbg_Df87yItmygA94X-23" value="" style="ellipse;shape=cloud;whiteSpace=wrap;html=1;" vertex="1" parent="1">
          <mxGeometry x="1257" y="145" width="43" height="22" as="geometry" />
        </mxCell>
        <mxCell id="lSYbg_Df87yItmygA94X-24" value="" style="endArrow=classic;html=1;rounded=0;" edge="1" parent="1">
          <mxGeometry width="50" height="50" relative="1" as="geometry">
            <mxPoint x="1160" y="199" as="sourcePoint" />
            <mxPoint x="1260" y="199" as="targetPoint" />
          </mxGeometry>
        </mxCell>
        <mxCell id="lSYbg_Df87yItmygA94X-25" value="ReflectiveInject" style="edgeLabel;html=1;align=center;verticalAlign=middle;resizable=0;points=[];" vertex="1" connectable="0" parent="lSYbg_Df87yItmygA94X-24">
          <mxGeometry x="0.152" y="-2" relative="1" as="geometry">
            <mxPoint x="-10" y="-10" as="offset" />
          </mxGeometry>
        </mxCell>
        <mxCell id="lSYbg_Df87yItmygA94X-26" value="" style="shape=document;whiteSpace=wrap;html=1;boundedLbl=1;" vertex="1" parent="1">
          <mxGeometry x="1261" y="190" width="30" height="20" as="geometry" />
        </mxCell>
        <mxCell id="lSYbg_Df87yItmygA94X-27" value=".jpg" style="text;strokeColor=none;align=center;fillColor=none;html=1;verticalAlign=middle;whiteSpace=wrap;rounded=0;" vertex="1" parent="1">
          <mxGeometry x="1247" y="200" width="60" height="30" as="geometry" />
        </mxCell>
        <mxCell id="lSYbg_Df87yItmygA94X-28" value="" style="endArrow=classic;html=1;rounded=0;" edge="1" parent="1">
          <mxGeometry width="50" height="50" relative="1" as="geometry">
            <mxPoint x="1160" y="237" as="sourcePoint" />
            <mxPoint x="1260" y="237" as="targetPoint" />
          </mxGeometry>
        </mxCell>
        <mxCell id="lSYbg_Df87yItmygA94X-29" value="ProcessCreate" style="edgeLabel;html=1;align=center;verticalAlign=middle;resizable=0;points=[];" vertex="1" connectable="0" parent="lSYbg_Df87yItmygA94X-28">
          <mxGeometry x="0.152" y="-2" relative="1" as="geometry">
            <mxPoint x="-10" y="-10" as="offset" />
          </mxGeometry>
        </mxCell>
        <mxCell id="lSYbg_Df87yItmygA94X-30" value="config.exe" style="text;strokeColor=none;align=center;fillColor=none;html=1;verticalAlign=middle;whiteSpace=wrap;rounded=0;" vertex="1" parent="1">
          <mxGeometry x="1244" y="237" width="60" height="30" as="geometry" />
        </mxCell>
        <mxCell id="lSYbg_Df87yItmygA94X-31" value="" style="ellipse;whiteSpace=wrap;html=1;aspect=fixed;fillColor=#f8cecc;strokeColor=#b85450;" vertex="1" parent="1">
          <mxGeometry x="1260" y="226" width="20" height="20" as="geometry" />
        </mxCell>
        <mxCell id="lSYbg_Df87yItmygA94X-32" value="" style="endArrow=classic;html=1;rounded=0;" edge="1" parent="1">
          <mxGeometry width="50" height="50" relative="1" as="geometry">
            <mxPoint x="1280" y="237" as="sourcePoint" />
            <mxPoint x="1380" y="237" as="targetPoint" />
          </mxGeometry>
        </mxCell>
        <mxCell id="lSYbg_Df87yItmygA94X-33" value="registryOperate" style="edgeLabel;html=1;align=center;verticalAlign=middle;resizable=0;points=[];" vertex="1" connectable="0" parent="lSYbg_Df87yItmygA94X-32">
          <mxGeometry x="0.152" y="-2" relative="1" as="geometry">
            <mxPoint x="-10" y="-10" as="offset" />
          </mxGeometry>
        </mxCell>
        <mxCell id="lSYbg_Df87yItmygA94X-34" value="RegClassification:1&lt;br&gt;开机启动项" style="text;strokeColor=none;align=center;fillColor=none;html=1;verticalAlign=middle;whiteSpace=wrap;rounded=0;" vertex="1" parent="1">
          <mxGeometry x="1412" y="216" width="76" height="30" as="geometry" />
        </mxCell>
        <mxCell id="lSYbg_Df87yItmygA94X-35" value="" style="shape=process;whiteSpace=wrap;html=1;backgroundOutline=1;" vertex="1" parent="1">
          <mxGeometry x="1380" y="232" width="20" height="10" as="geometry" />
        </mxCell>
        <mxCell id="lSYbg_Df87yItmygA94X-36" value="" style="endArrow=classic;html=1;rounded=0;exitX=0.611;exitY=0.035;exitDx=0;exitDy=0;exitPerimeter=0;dashed=1;" edge="1" parent="1" source="lSYbg_Df87yItmygA94X-30">
          <mxGeometry width="50" height="50" relative="1" as="geometry">
            <mxPoint x="1280" y="298" as="sourcePoint" />
            <mxPoint x="1380" y="298" as="targetPoint" />
          </mxGeometry>
        </mxCell>
        <mxCell id="lSYbg_Df87yItmygA94X-37" value="AutoStart" style="edgeLabel;html=1;align=center;verticalAlign=middle;resizable=0;points=[];" vertex="1" connectable="0" parent="lSYbg_Df87yItmygA94X-36">
          <mxGeometry x="0.152" y="-2" relative="1" as="geometry">
            <mxPoint x="1" y="-2" as="offset" />
          </mxGeometry>
        </mxCell>
        <mxCell id="lSYbg_Df87yItmygA94X-38" value="CCMini.exe" style="text;strokeColor=none;align=center;fillColor=none;html=1;verticalAlign=middle;whiteSpace=wrap;rounded=0;" vertex="1" parent="1">
          <mxGeometry x="1357" y="305" width="76" height="30" as="geometry" />
        </mxCell>
        <mxCell id="lSYbg_Df87yItmygA94X-39" value="" style="ellipse;whiteSpace=wrap;html=1;aspect=fixed;fillColor=#f8cecc;strokeColor=#b85450;" vertex="1" parent="1">
          <mxGeometry x="1380" y="285" width="20" height="20" as="geometry" />
        </mxCell>
        <mxCell id="lSYbg_Df87yItmygA94X-40" value="" style="endArrow=classic;html=1;rounded=0;" edge="1" parent="1">
          <mxGeometry width="50" height="50" relative="1" as="geometry">
            <mxPoint x="1400" y="295.43" as="sourcePoint" />
            <mxPoint x="1500" y="295.43" as="targetPoint" />
          </mxGeometry>
        </mxCell>
        <mxCell id="lSYbg_Df87yItmygA94X-41" value="ImageLoad" style="edgeLabel;html=1;align=center;verticalAlign=middle;resizable=0;points=[];" vertex="1" connectable="0" parent="lSYbg_Df87yItmygA94X-40">
          <mxGeometry x="0.152" y="-2" relative="1" as="geometry">
            <mxPoint x="-10" y="-10" as="offset" />
          </mxGeometry>
        </mxCell>
        <mxCell id="lSYbg_Df87yItmygA94X-42" value="AudioEngine.dll" style="text;strokeColor=none;align=center;fillColor=none;html=1;verticalAlign=middle;whiteSpace=wrap;rounded=0;" vertex="1" parent="1">
          <mxGeometry x="1478" y="304" width="76" height="30" as="geometry" />
        </mxCell>
        <mxCell id="lSYbg_Df87yItmygA94X-43" value="" style="ellipse;whiteSpace=wrap;html=1;aspect=fixed;" vertex="1" parent="1">
          <mxGeometry x="1501" y="284" width="20" height="20" as="geometry" />
        </mxCell>
        <mxCell id="lSYbg_Df87yItmygA94X-44" value="" style="ellipse;whiteSpace=wrap;html=1;aspect=fixed;fillColor=#f8cecc;strokeColor=#b85450;" vertex="1" parent="1">
          <mxGeometry x="1260" y="452.67" width="20" height="20" as="geometry" />
        </mxCell>
        <mxCell id="lSYbg_Df87yItmygA94X-45" value="window.exe" style="text;strokeColor=none;align=center;fillColor=none;html=1;verticalAlign=middle;whiteSpace=wrap;rounded=0;" vertex="1" parent="1">
          <mxGeometry x="1248.5" y="472.67" width="60" height="30" as="geometry" />
        </mxCell>
        <mxCell id="lSYbg_Df87yItmygA94X-46" value="" style="curved=1;endArrow=classic;html=1;rounded=0;exitX=0;exitY=0;exitDx=0;exitDy=0;entryX=1;entryY=0;entryDx=0;entryDy=0;dashed=1;" edge="1" parent="1" source="lSYbg_Df87yItmygA94X-44" target="lSYbg_Df87yItmygA94X-44">
          <mxGeometry width="50" height="50" relative="1" as="geometry">
            <mxPoint x="1230" y="412.67" as="sourcePoint" />
            <mxPoint x="1280" y="362.67" as="targetPoint" />
            <Array as="points">
              <mxPoint x="1250" y="422.67" />
              <mxPoint x="1263" y="402.67" />
              <mxPoint x="1290" y="422.67" />
            </Array>
          </mxGeometry>
        </mxCell>
        <mxCell id="lSYbg_Df87yItmygA94X-47" value="ReflectiveInject" style="text;whiteSpace=wrap;" vertex="1" parent="1">
          <mxGeometry x="1228" y="388.67" width="90" height="20" as="geometry" />
        </mxCell>
        <mxCell id="lSYbg_Df87yItmygA94X-48" value="" style="shape=document;whiteSpace=wrap;html=1;boundedLbl=1;" vertex="1" parent="1">
          <mxGeometry x="531.02" y="701.3299999999999" width="30" height="20" as="geometry" />
        </mxCell>
        <mxCell id="lSYbg_Df87yItmygA94X-49" value="GoogleCrashHandler.exe" style="text;strokeColor=none;align=center;fillColor=none;html=1;verticalAlign=middle;whiteSpace=wrap;rounded=0;" vertex="1" parent="1">
          <mxGeometry x="497.02" y="715" width="97" height="30" as="geometry" />
        </mxCell>
        <mxCell id="lSYbg_Df87yItmygA94X-50" value="" style="endArrow=classic;html=1;rounded=0;edgeStyle=elbowEdgeStyle;dashed=1;" edge="1" parent="1">
          <mxGeometry width="50" height="50" relative="1" as="geometry">
            <mxPoint x="547.02" y="620" as="sourcePoint" />
            <mxPoint x="677.02" y="701.3299999999999" as="targetPoint" />
            <Array as="points">
              <mxPoint x="677.02" y="621.33" />
            </Array>
          </mxGeometry>
        </mxCell>
        <mxCell id="lSYbg_Df87yItmygA94X-51" value="FileCreate" style="edgeLabel;html=1;align=center;verticalAlign=middle;resizable=0;points=[];" vertex="1" connectable="0" parent="lSYbg_Df87yItmygA94X-50">
          <mxGeometry x="-0.16" y="3" relative="1" as="geometry">
            <mxPoint x="-3" y="20" as="offset" />
          </mxGeometry>
        </mxCell>
        <mxCell id="lSYbg_Df87yItmygA94X-52" value="" style="shape=document;whiteSpace=wrap;html=1;boundedLbl=1;" vertex="1" parent="1">
          <mxGeometry x="660.52" y="701.3299999999999" width="30" height="20" as="geometry" />
        </mxCell>
        <mxCell id="lSYbg_Df87yItmygA94X-53" value="version.dll" style="text;strokeColor=none;align=center;fillColor=none;html=1;verticalAlign=middle;whiteSpace=wrap;rounded=0;" vertex="1" parent="1">
          <mxGeometry x="627.02" y="715" width="97" height="30" as="geometry" />
        </mxCell>
        <mxCell id="lSYbg_Df87yItmygA94X-54" value="" style="endArrow=classic;html=1;rounded=0;exitX=1;exitY=0.5;exitDx=0;exitDy=0;" edge="1" parent="1">
          <mxGeometry width="50" height="50" relative="1" as="geometry">
            <mxPoint x="422.02" y="805.3399999999999" as="sourcePoint" />
            <mxPoint x="537.02" y="804.67" as="targetPoint" />
          </mxGeometry>
        </mxCell>
        <mxCell id="lSYbg_Df87yItmygA94X-55" value="LnkProcessCreate" style="edgeLabel;html=1;align=center;verticalAlign=middle;resizable=0;points=[];" vertex="1" connectable="0" parent="lSYbg_Df87yItmygA94X-54">
          <mxGeometry x="-0.16" y="3" relative="1" as="geometry">
            <mxPoint x="-29" y="193" as="offset" />
          </mxGeometry>
        </mxCell>
        <mxCell id="lSYbg_Df87yItmygA94X-56" value="" style="ellipse;whiteSpace=wrap;html=1;aspect=fixed;fillColor=#f8cecc;strokeColor=#b85450;" vertex="1" parent="1">
          <mxGeometry x="537.02" y="795.17" width="20" height="20" as="geometry" />
        </mxCell>
        <mxCell id="lSYbg_Df87yItmygA94X-57" value="" style="endArrow=classic;html=1;rounded=0;entryX=0.5;entryY=0;entryDx=0;entryDy=0;dashed=1;" edge="1" parent="1" target="lSYbg_Df87yItmygA94X-56">
          <mxGeometry width="50" height="50" relative="1" as="geometry">
            <mxPoint x="547.02" y="720" as="sourcePoint" />
            <mxPoint x="687.02" y="759.4999999999999" as="targetPoint" />
          </mxGeometry>
        </mxCell>
        <mxCell id="lSYbg_Df87yItmygA94X-58" value="" style="endArrow=classic;html=1;rounded=0;exitX=1;exitY=0.5;exitDx=0;exitDy=0;entryX=0;entryY=0.5;entryDx=0;entryDy=0;" edge="1" parent="1" target="lSYbg_Df87yItmygA94X-60">
          <mxGeometry width="50" height="50" relative="1" as="geometry">
            <mxPoint x="557.02" y="806.5" as="sourcePoint" />
            <mxPoint x="672.02" y="805.8299999999999" as="targetPoint" />
            <Array as="points">
              <mxPoint x="557.02" y="755" />
            </Array>
          </mxGeometry>
        </mxCell>
        <mxCell id="lSYbg_Df87yItmygA94X-59" value="ImageLoad" style="edgeLabel;html=1;align=center;verticalAlign=middle;resizable=0;points=[];" vertex="1" connectable="0" parent="lSYbg_Df87yItmygA94X-58">
          <mxGeometry x="-0.16" y="3" relative="1" as="geometry">
            <mxPoint x="9" y="-7" as="offset" />
          </mxGeometry>
        </mxCell>
        <mxCell id="lSYbg_Df87yItmygA94X-60" value="" style="ellipse;whiteSpace=wrap;html=1;aspect=fixed;" vertex="1" parent="1">
          <mxGeometry x="665.52" y="745.3299999999999" width="20" height="20" as="geometry" />
        </mxCell>
        <mxCell id="lSYbg_Df87yItmygA94X-61" value="version.dll" style="text;strokeColor=none;align=center;fillColor=none;html=1;verticalAlign=middle;whiteSpace=wrap;rounded=0;" vertex="1" parent="1">
          <mxGeometry x="645.52" y="758.9999999999999" width="60" height="30" as="geometry" />
        </mxCell>
        <mxCell id="lSYbg_Df87yItmygA94X-62" value="" style="endArrow=classic;html=1;rounded=0;entryX=0.5;entryY=0;entryDx=0;entryDy=0;dashed=1;exitX=0.5;exitY=0;exitDx=0;exitDy=0;" edge="1" parent="1" source="lSYbg_Df87yItmygA94X-53" target="lSYbg_Df87yItmygA94X-60">
          <mxGeometry width="50" height="50" relative="1" as="geometry">
            <mxPoint x="682.02" y="719.8299999999999" as="sourcePoint" />
            <mxPoint x="822.02" y="759.3299999999999" as="targetPoint" />
          </mxGeometry>
        </mxCell>
        <mxCell id="lSYbg_Df87yItmygA94X-63" value="" style="endArrow=classic;html=1;rounded=0;entryX=0;entryY=0.5;entryDx=0;entryDy=0;" edge="1" parent="1" target="lSYbg_Df87yItmygA94X-66">
          <mxGeometry width="50" height="50" relative="1" as="geometry">
            <mxPoint x="557.02" y="806.1700000000001" as="sourcePoint" />
            <mxPoint x="657.02" y="806.1700000000001" as="targetPoint" />
          </mxGeometry>
        </mxCell>
        <mxCell id="lSYbg_Df87yItmygA94X-64" value="ProcessCreate" style="edgeLabel;html=1;align=center;verticalAlign=middle;resizable=0;points=[];" vertex="1" connectable="0" parent="lSYbg_Df87yItmygA94X-63">
          <mxGeometry x="0.152" y="-2" relative="1" as="geometry">
            <mxPoint x="-10" y="-10" as="offset" />
          </mxGeometry>
        </mxCell>
        <mxCell id="lSYbg_Df87yItmygA94X-65" value="cmd.exe" style="text;strokeColor=none;align=center;fillColor=none;html=1;verticalAlign=middle;whiteSpace=wrap;rounded=0;" vertex="1" parent="1">
          <mxGeometry x="646.02" y="808.1700000000001" width="60" height="30" as="geometry" />
        </mxCell>
        <mxCell id="lSYbg_Df87yItmygA94X-66" value="" style="ellipse;whiteSpace=wrap;html=1;aspect=fixed;fillColor=#f8cecc;strokeColor=#b85450;" vertex="1" parent="1">
          <mxGeometry x="665.02" y="795.1700000000001" width="20" height="20" as="geometry" />
        </mxCell>
        <mxCell id="lSYbg_Df87yItmygA94X-67" value="" style="endArrow=classic;html=1;rounded=0;entryX=0;entryY=0.5;entryDx=0;entryDy=0;" edge="1" parent="1" target="lSYbg_Df87yItmygA94X-70">
          <mxGeometry width="50" height="50" relative="1" as="geometry">
            <mxPoint x="685.52" y="806.1700000000001" as="sourcePoint" />
            <mxPoint x="785.52" y="806.1700000000001" as="targetPoint" />
          </mxGeometry>
        </mxCell>
        <mxCell id="lSYbg_Df87yItmygA94X-68" value="ProcessCreate" style="edgeLabel;html=1;align=center;verticalAlign=middle;resizable=0;points=[];" vertex="1" connectable="0" parent="lSYbg_Df87yItmygA94X-67">
          <mxGeometry x="0.152" y="-2" relative="1" as="geometry">
            <mxPoint x="-10" y="-10" as="offset" />
          </mxGeometry>
        </mxCell>
        <mxCell id="lSYbg_Df87yItmygA94X-69" value="whoami.exe" style="text;strokeColor=none;align=center;fillColor=none;html=1;verticalAlign=middle;whiteSpace=wrap;rounded=0;" vertex="1" parent="1">
          <mxGeometry x="774.52" y="808.1700000000001" width="60" height="30" as="geometry" />
        </mxCell>
        <mxCell id="lSYbg_Df87yItmygA94X-70" value="" style="ellipse;whiteSpace=wrap;html=1;aspect=fixed;" vertex="1" parent="1">
          <mxGeometry x="793.52" y="795.1700000000001" width="20" height="20" as="geometry" />
        </mxCell>
        <mxCell id="lSYbg_Df87yItmygA94X-71" value="" style="curved=1;endArrow=classic;html=1;rounded=0;exitX=0;exitY=1;exitDx=0;exitDy=0;entryX=1;entryY=1;entryDx=0;entryDy=0;dashed=1;" edge="1" parent="1" source="lSYbg_Df87yItmygA94X-56" target="lSYbg_Df87yItmygA94X-56">
          <mxGeometry width="50" height="50" relative="1" as="geometry">
            <mxPoint x="544.02" y="892.6700000000001" as="sourcePoint" />
            <mxPoint x="594.02" y="842.6700000000001" as="targetPoint" />
            <Array as="points">
              <mxPoint x="527.02" y="860" />
              <mxPoint x="537.02" y="880" />
              <mxPoint x="587.02" y="880" />
            </Array>
          </mxGeometry>
        </mxCell>
        <mxCell id="lSYbg_Df87yItmygA94X-72" value="ReflectiveInject" style="text;whiteSpace=wrap;" vertex="1" parent="1">
          <mxGeometry x="504.02" y="880" width="90" height="20" as="geometry" />
        </mxCell>
        <mxCell id="lSYbg_Df87yItmygA94X-73" value="GoogleCrashHandler64.exe" style="text;strokeColor=none;align=center;fillColor=none;html=1;verticalAlign=middle;whiteSpace=wrap;rounded=0;" vertex="1" parent="1">
          <mxGeometry x="515.52" y="816.9999999999999" width="60" height="30" as="geometry" />
        </mxCell>
        <mxCell id="lSYbg_Df87yItmygA94X-74" value="" style="endArrow=classic;html=1;rounded=0;exitX=0.5;exitY=1;exitDx=0;exitDy=0;edgeStyle=elbowEdgeStyle;dashed=1;" edge="1" parent="1" source="lSYbg_Df87yItmygA94X-17">
          <mxGeometry width="50" height="50" relative="1" as="geometry">
            <mxPoint x="214" y="147" as="sourcePoint" />
            <mxPoint x="213.66666666666674" y="358.66999999999996" as="targetPoint" />
            <Array as="points" />
          </mxGeometry>
        </mxCell>
        <mxCell id="lSYbg_Df87yItmygA94X-75" value="FileCreate" style="edgeLabel;html=1;align=center;verticalAlign=middle;resizable=0;points=[];" vertex="1" connectable="0" parent="lSYbg_Df87yItmygA94X-74">
          <mxGeometry x="-0.16" y="3" relative="1" as="geometry">
            <mxPoint x="-3" y="-10" as="offset" />
          </mxGeometry>
        </mxCell>
        <mxCell id="lSYbg_Df87yItmygA94X-78" value="" style="endArrow=classic;html=1;rounded=0;entryX=0;entryY=0.5;entryDx=0;entryDy=0;dashed=1;" edge="1" parent="1" target="lSYbg_Df87yItmygA94X-80">
          <mxGeometry width="50" height="50" relative="1" as="geometry">
            <mxPoint x="226" y="369.6700000000001" as="sourcePoint" />
            <mxPoint x="326" y="369.6700000000001" as="targetPoint" />
          </mxGeometry>
        </mxCell>
        <mxCell id="lSYbg_Df87yItmygA94X-79" value="ProcessCreate（Task）" style="edgeLabel;html=1;align=center;verticalAlign=middle;resizable=0;points=[];" vertex="1" connectable="0" parent="lSYbg_Df87yItmygA94X-78">
          <mxGeometry x="0.152" y="-2" relative="1" as="geometry">
            <mxPoint x="-12" y="-10" as="offset" />
          </mxGeometry>
        </mxCell>
        <mxCell id="lSYbg_Df87yItmygA94X-80" value="" style="ellipse;whiteSpace=wrap;html=1;aspect=fixed;fillColor=#f8cecc;strokeColor=#b85450;" vertex="1" parent="1">
          <mxGeometry x="363" y="358.6700000000001" width="20" height="20" as="geometry" />
        </mxCell>
        <mxCell id="lSYbg_Df87yItmygA94X-81" value="cmd.exe" style="text;strokeColor=none;align=center;fillColor=none;html=1;verticalAlign=middle;whiteSpace=wrap;rounded=0;" vertex="1" parent="1">
          <mxGeometry x="345" y="371.6700000000001" width="60" height="30" as="geometry" />
        </mxCell>
        <mxCell id="lSYbg_Df87yItmygA94X-82" value="" style="endArrow=classic;html=1;rounded=0;entryX=0;entryY=0.5;entryDx=0;entryDy=0;" edge="1" parent="1" target="lSYbg_Df87yItmygA94X-84">
          <mxGeometry width="50" height="50" relative="1" as="geometry">
            <mxPoint x="383" y="369.6700000000001" as="sourcePoint" />
            <mxPoint x="483" y="369.6700000000001" as="targetPoint" />
          </mxGeometry>
        </mxCell>
        <mxCell id="lSYbg_Df87yItmygA94X-83" value="ProcessCreate" style="edgeLabel;html=1;align=center;verticalAlign=middle;resizable=0;points=[];" vertex="1" connectable="0" parent="lSYbg_Df87yItmygA94X-82">
          <mxGeometry x="0.152" y="-2" relative="1" as="geometry">
            <mxPoint x="-10" y="-10" as="offset" />
          </mxGeometry>
        </mxCell>
        <mxCell id="lSYbg_Df87yItmygA94X-84" value="" style="ellipse;whiteSpace=wrap;html=1;aspect=fixed;fillColor=#f8cecc;strokeColor=#b85450;" vertex="1" parent="1">
          <mxGeometry x="525.02" y="359.50000000000006" width="20" height="20" as="geometry" />
        </mxCell>
        <mxCell id="lSYbg_Df87yItmygA94X-85" value="msiexec" style="text;strokeColor=none;align=center;fillColor=none;html=1;verticalAlign=middle;whiteSpace=wrap;rounded=0;" vertex="1" parent="1">
          <mxGeometry x="506.02" y="372.50000000000006" width="60" height="30" as="geometry" />
        </mxCell>
        <mxCell id="lSYbg_Df87yItmygA94X-86" value="" style="endArrow=classic;html=1;rounded=0;entryX=0;entryY=0.5;entryDx=0;entryDy=0;" edge="1" parent="1" target="lSYbg_Df87yItmygA94X-88">
          <mxGeometry width="50" height="50" relative="1" as="geometry">
            <mxPoint x="545.02" y="370.50000000000006" as="sourcePoint" />
            <mxPoint x="645.02" y="370.50000000000006" as="targetPoint" />
          </mxGeometry>
        </mxCell>
        <mxCell id="lSYbg_Df87yItmygA94X-87" value="ProcessCreate" style="edgeLabel;html=1;align=center;verticalAlign=middle;resizable=0;points=[];" vertex="1" connectable="0" parent="lSYbg_Df87yItmygA94X-86">
          <mxGeometry x="0.152" y="-2" relative="1" as="geometry">
            <mxPoint x="-10" y="-10" as="offset" />
          </mxGeometry>
        </mxCell>
        <mxCell id="lSYbg_Df87yItmygA94X-88" value="" style="ellipse;whiteSpace=wrap;html=1;aspect=fixed;fillColor=#f8cecc;strokeColor=#b85450;" vertex="1" parent="1">
          <mxGeometry x="654.02" y="359.50000000000006" width="20" height="20" as="geometry" />
        </mxCell>
        <mxCell id="lSYbg_Df87yItmygA94X-89" value="rekeywiz.exe" style="text;strokeColor=none;align=center;fillColor=none;html=1;verticalAlign=middle;whiteSpace=wrap;rounded=0;" vertex="1" parent="1">
          <mxGeometry x="634.02" y="372.50000000000006" width="60" height="30" as="geometry" />
        </mxCell>
        <mxCell id="lSYbg_Df87yItmygA94X-90" value="" style="endArrow=classic;html=1;rounded=0;entryX=0;entryY=0.5;entryDx=0;entryDy=0;exitX=0.5;exitY=0;exitDx=0;exitDy=0;entryPerimeter=0;" edge="1" parent="1" source="lSYbg_Df87yItmygA94X-80" target="lSYbg_Df87yItmygA94X-94">
          <mxGeometry width="50" height="50" relative="1" as="geometry">
            <mxPoint x="449" y="290" as="sourcePoint" />
            <mxPoint x="593.5200000000193" y="288" as="targetPoint" />
            <Array as="points">
              <mxPoint x="372" y="286" />
            </Array>
          </mxGeometry>
        </mxCell>
        <mxCell id="lSYbg_Df87yItmygA94X-91" value="FileCreate" style="edgeLabel;html=1;align=center;verticalAlign=middle;resizable=0;points=[];" vertex="1" connectable="0" parent="lSYbg_Df87yItmygA94X-90">
          <mxGeometry x="0.0709" y="2" relative="1" as="geometry">
            <mxPoint x="35" y="-5" as="offset" />
          </mxGeometry>
        </mxCell>
        <mxCell id="lSYbg_Df87yItmygA94X-92" value="" style="curved=1;endArrow=classic;html=1;rounded=0;exitX=0;exitY=1;exitDx=0;exitDy=0;entryX=1;entryY=1;entryDx=0;entryDy=0;dashed=1;" edge="1" parent="1">
          <mxGeometry width="50" height="50" relative="1" as="geometry">
            <mxPoint x="655" y="394" as="sourcePoint" />
            <mxPoint x="669" y="394" as="targetPoint" />
            <Array as="points">
              <mxPoint x="642.02" y="442" />
              <mxPoint x="652.02" y="462" />
              <mxPoint x="702.02" y="462" />
            </Array>
          </mxGeometry>
        </mxCell>
        <mxCell id="lSYbg_Df87yItmygA94X-93" value="ReflectiveInject" style="text;whiteSpace=wrap;" vertex="1" parent="1">
          <mxGeometry x="619.02" y="462" width="90" height="20" as="geometry" />
        </mxCell>
        <mxCell id="lSYbg_Df87yItmygA94X-94" value="" style="shape=document;whiteSpace=wrap;html=1;boundedLbl=1;" vertex="1" parent="1">
          <mxGeometry x="522.02" y="276.33" width="30" height="20" as="geometry" />
        </mxCell>
        <mxCell id="lSYbg_Df87yItmygA94X-95" value="secondstager.hta" style="text;strokeColor=none;align=center;fillColor=none;html=1;verticalAlign=middle;whiteSpace=wrap;rounded=0;" vertex="1" parent="1">
          <mxGeometry x="569.02" y="273.33" width="65" height="26" as="geometry" />
        </mxCell>
        <mxCell id="lSYbg_Df87yItmygA94X-96" value="" style="endArrow=classic;html=1;rounded=0;entryX=0.5;entryY=0;entryDx=0;entryDy=0;exitX=0.419;exitY=0.934;exitDx=0;exitDy=0;exitPerimeter=0;dashed=1;" edge="1" parent="1" source="lSYbg_Df87yItmygA94X-94" target="lSYbg_Df87yItmygA94X-84">
          <mxGeometry width="50" height="50" relative="1" as="geometry">
            <mxPoint x="407" y="240" as="sourcePoint" />
            <mxPoint x="457" y="190" as="targetPoint" />
          </mxGeometry>
        </mxCell>
        <mxCell id="lSYbg_Df87yItmygA94X-97" value="" style="endArrow=classic;html=1;rounded=0;entryX=0;entryY=0.5;entryDx=0;entryDy=0;exitX=0.5;exitY=0;exitDx=0;exitDy=0;" edge="1" parent="1" source="lSYbg_Df87yItmygA94X-88" target="lSYbg_Df87yItmygA94X-99">
          <mxGeometry width="50" height="50" relative="1" as="geometry">
            <mxPoint x="654.02" y="287.33000000000004" as="sourcePoint" />
            <mxPoint x="754.02" y="287.33000000000004" as="targetPoint" />
            <Array as="points">
              <mxPoint x="664" y="286" />
            </Array>
          </mxGeometry>
        </mxCell>
        <mxCell id="lSYbg_Df87yItmygA94X-98" value="ImageLoad" style="edgeLabel;html=1;align=center;verticalAlign=middle;resizable=0;points=[];" vertex="1" connectable="0" parent="lSYbg_Df87yItmygA94X-97">
          <mxGeometry x="0.152" y="-2" relative="1" as="geometry">
            <mxPoint x="18" y="-10" as="offset" />
          </mxGeometry>
        </mxCell>
        <mxCell id="lSYbg_Df87yItmygA94X-99" value="" style="ellipse;whiteSpace=wrap;html=1;aspect=fixed;" vertex="1" parent="1">
          <mxGeometry x="763.02" y="276.33000000000004" width="20" height="20" as="geometry" />
        </mxCell>
        <mxCell id="lSYbg_Df87yItmygA94X-100" value="duser.dll" style="text;strokeColor=none;align=center;fillColor=none;html=1;verticalAlign=middle;whiteSpace=wrap;rounded=0;" vertex="1" parent="1">
          <mxGeometry x="743.02" y="289.33000000000004" width="60" height="30" as="geometry" />
        </mxCell>
        <mxCell id="lSYbg_Df87yItmygA94X-101" value="" style="endArrow=classic;html=1;rounded=0;" edge="1" parent="1">
          <mxGeometry width="50" height="50" relative="1" as="geometry">
            <mxPoint x="674.02" y="370.5" as="sourcePoint" />
            <mxPoint x="774.02" y="370.5" as="targetPoint" />
          </mxGeometry>
        </mxCell>
        <mxCell id="lSYbg_Df87yItmygA94X-102" value="registryOperate" style="edgeLabel;html=1;align=center;verticalAlign=middle;resizable=0;points=[];" vertex="1" connectable="0" parent="lSYbg_Df87yItmygA94X-101">
          <mxGeometry x="0.152" y="-2" relative="1" as="geometry">
            <mxPoint x="-10" y="-10" as="offset" />
          </mxGeometry>
        </mxCell>
        <mxCell id="lSYbg_Df87yItmygA94X-103" value="RegClassification:1&lt;br&gt;开机启动项" style="text;strokeColor=none;align=center;fillColor=none;html=1;verticalAlign=middle;whiteSpace=wrap;rounded=0;" vertex="1" parent="1">
          <mxGeometry x="806.02" y="349.5" width="76" height="30" as="geometry" />
        </mxCell>
        <mxCell id="lSYbg_Df87yItmygA94X-104" value="" style="shape=process;whiteSpace=wrap;html=1;backgroundOutline=1;" vertex="1" parent="1">
          <mxGeometry x="774.02" y="365.5" width="20" height="10" as="geometry" />
        </mxCell>
        <mxCell id="lSYbg_Df87yItmygA94X-105" value="" style="shape=document;whiteSpace=wrap;html=1;boundedLbl=1;fillColor=#f8cecc;strokeColor=#b85450;" vertex="1" parent="1">
          <mxGeometry x="199" y="263.16999999999996" width="30" height="20" as="geometry" />
        </mxCell>
        <mxCell id="lSYbg_Df87yItmygA94X-106" value=".chm" style="text;strokeColor=none;align=center;fillColor=none;html=1;verticalAlign=middle;whiteSpace=wrap;rounded=0;" vertex="1" parent="1">
          <mxGeometry x="212" y="259.33" width="60" height="30" as="geometry" />
        </mxCell>
        <mxCell id="lSYbg_Df87yItmygA94X-107" value="" style="ellipse;whiteSpace=wrap;html=1;aspect=fixed;fillColor=#f8cecc;strokeColor=#b85450;" vertex="1" parent="1">
          <mxGeometry x="202" y="358.6700000000001" width="20" height="20" as="geometry" />
        </mxCell>
        <mxCell id="lSYbg_Df87yItmygA94X-108" value="hh.exe" style="text;strokeColor=none;align=center;fillColor=none;html=1;verticalAlign=middle;whiteSpace=wrap;rounded=0;" vertex="1" parent="1">
          <mxGeometry x="184" y="371.6700000000001" width="60" height="30" as="geometry" />
        </mxCell>
      </root>
    </mxGraphModel>
  </diagram>
</mxfile>
